<mxfile host="Electron" modified="2024-07-07T13:43:14.540Z" agent="Mozilla/5.0 (Windows NT 10.0; Win64; x64) AppleWebKit/537.36 (KHTML, like Gecko) draw.io/24.5.3 Chrome/124.0.6367.207 Electron/30.0.6 Safari/537.36" etag="KAsFJN9aEEzgiv1pteNn" version="24.5.3" type="device">
  <diagram name="Page-1" id="KgYpLNWqzJLJMeZQsPGq">
    <mxGraphModel dx="1235" dy="731" grid="1" gridSize="10" guides="1" tooltips="1" connect="1" arrows="1" fold="1" page="1" pageScale="1" pageWidth="900" pageHeight="1600" math="0" shadow="0">
      <root>
        <mxCell id="0" />
        <mxCell id="1" parent="0" />
        <mxCell id="mc4YOfM3O7CR0dzrdJk4-8" style="edgeStyle=orthogonalEdgeStyle;rounded=0;orthogonalLoop=1;jettySize=auto;html=1;entryX=0.75;entryY=1;entryDx=0;entryDy=0;" parent="1" source="mc4YOfM3O7CR0dzrdJk4-2" target="mc4YOfM3O7CR0dzrdJk4-7" edge="1">
          <mxGeometry relative="1" as="geometry" />
        </mxCell>
        <mxCell id="mc4YOfM3O7CR0dzrdJk4-12" style="edgeStyle=orthogonalEdgeStyle;rounded=0;orthogonalLoop=1;jettySize=auto;html=1;entryX=0;entryY=0.5;entryDx=0;entryDy=0;" parent="1" source="mc4YOfM3O7CR0dzrdJk4-2" target="mc4YOfM3O7CR0dzrdJk4-7" edge="1">
          <mxGeometry relative="1" as="geometry">
            <Array as="points">
              <mxPoint x="330" y="130" />
              <mxPoint x="330" y="276" />
            </Array>
          </mxGeometry>
        </mxCell>
        <mxCell id="mc4YOfM3O7CR0dzrdJk4-14" value="lower" style="edgeLabel;html=1;align=center;verticalAlign=middle;resizable=0;points=[];" parent="mc4YOfM3O7CR0dzrdJk4-12" vertex="1" connectable="0">
          <mxGeometry x="-0.0415" y="-3" relative="1" as="geometry">
            <mxPoint x="3" y="32" as="offset" />
          </mxGeometry>
        </mxCell>
        <mxCell id="mc4YOfM3O7CR0dzrdJk4-15" style="edgeStyle=orthogonalEdgeStyle;rounded=0;orthogonalLoop=1;jettySize=auto;html=1;entryX=1;entryY=0.5;entryDx=0;entryDy=0;" parent="1" source="mc4YOfM3O7CR0dzrdJk4-2" target="mc4YOfM3O7CR0dzrdJk4-13" edge="1">
          <mxGeometry relative="1" as="geometry" />
        </mxCell>
        <mxCell id="mc4YOfM3O7CR0dzrdJk4-2" value="&lt;font style=&quot;font-size: 18px;&quot;&gt;-&lt;/font&gt;" style="ellipse;whiteSpace=wrap;html=1;aspect=fixed;fillColor=#d5e8d4;strokeColor=#82b366;" parent="1" vertex="1">
          <mxGeometry x="120" y="90" width="80" height="80" as="geometry" />
        </mxCell>
        <mxCell id="mc4YOfM3O7CR0dzrdJk4-4" style="edgeStyle=orthogonalEdgeStyle;rounded=0;orthogonalLoop=1;jettySize=auto;html=1;entryX=0;entryY=0;entryDx=0;entryDy=0;" parent="1" source="mc4YOfM3O7CR0dzrdJk4-3" target="mc4YOfM3O7CR0dzrdJk4-2" edge="1">
          <mxGeometry relative="1" as="geometry" />
        </mxCell>
        <mxCell id="mc4YOfM3O7CR0dzrdJk4-3" value="a exponent" style="text;html=1;align=center;verticalAlign=middle;whiteSpace=wrap;rounded=0;" parent="1" vertex="1">
          <mxGeometry x="30" y="20" width="90" height="30" as="geometry" />
        </mxCell>
        <mxCell id="mc4YOfM3O7CR0dzrdJk4-6" style="edgeStyle=orthogonalEdgeStyle;rounded=0;orthogonalLoop=1;jettySize=auto;html=1;entryX=1;entryY=0;entryDx=0;entryDy=0;" parent="1" source="mc4YOfM3O7CR0dzrdJk4-5" target="mc4YOfM3O7CR0dzrdJk4-2" edge="1">
          <mxGeometry relative="1" as="geometry" />
        </mxCell>
        <mxCell id="mc4YOfM3O7CR0dzrdJk4-5" value="b exponent" style="text;html=1;align=center;verticalAlign=middle;whiteSpace=wrap;rounded=0;" parent="1" vertex="1">
          <mxGeometry x="200" y="20" width="90" height="30" as="geometry" />
        </mxCell>
        <mxCell id="mc4YOfM3O7CR0dzrdJk4-33" style="edgeStyle=orthogonalEdgeStyle;rounded=0;orthogonalLoop=1;jettySize=auto;html=1;entryX=0;entryY=0.5;entryDx=0;entryDy=0;" parent="1" source="mc4YOfM3O7CR0dzrdJk4-7" target="mc4YOfM3O7CR0dzrdJk4-32" edge="1">
          <mxGeometry relative="1" as="geometry">
            <Array as="points">
              <mxPoint x="195" y="345" />
            </Array>
          </mxGeometry>
        </mxCell>
        <mxCell id="mc4YOfM3O7CR0dzrdJk4-34" value="LSB 4 Bits" style="edgeLabel;html=1;align=center;verticalAlign=middle;resizable=0;points=[];" parent="mc4YOfM3O7CR0dzrdJk4-33" vertex="1" connectable="0">
          <mxGeometry x="0.1622" y="-2" relative="1" as="geometry">
            <mxPoint as="offset" />
          </mxGeometry>
        </mxCell>
        <mxCell id="mc4YOfM3O7CR0dzrdJk4-7" value="" style="shape=trapezoid;perimeter=trapezoidPerimeter;whiteSpace=wrap;html=1;fixedSize=1;rotation=-180;fillColor=#dae8fc;strokeColor=#6c8ebf;" parent="1" vertex="1">
          <mxGeometry x="125" y="256" width="140" height="40" as="geometry" />
        </mxCell>
        <mxCell id="mc4YOfM3O7CR0dzrdJk4-11" style="edgeStyle=orthogonalEdgeStyle;rounded=0;orthogonalLoop=1;jettySize=auto;html=1;entryX=0.25;entryY=1;entryDx=0;entryDy=0;" parent="1" source="mc4YOfM3O7CR0dzrdJk4-9" target="mc4YOfM3O7CR0dzrdJk4-7" edge="1">
          <mxGeometry relative="1" as="geometry" />
        </mxCell>
        <mxCell id="mc4YOfM3O7CR0dzrdJk4-9" value="two&#39;s comlement" style="ellipse;whiteSpace=wrap;html=1;aspect=fixed;fillColor=#ffe6cc;strokeColor=#d79b00;" parent="1" vertex="1">
          <mxGeometry x="195" y="155" width="70" height="70" as="geometry" />
        </mxCell>
        <mxCell id="mc4YOfM3O7CR0dzrdJk4-10" value="" style="endArrow=none;html=1;rounded=0;entryX=0;entryY=0.5;entryDx=0;entryDy=0;" parent="1" target="mc4YOfM3O7CR0dzrdJk4-9" edge="1">
          <mxGeometry width="50" height="50" relative="1" as="geometry">
            <mxPoint x="160" y="190" as="sourcePoint" />
            <mxPoint x="300" y="170" as="targetPoint" />
          </mxGeometry>
        </mxCell>
        <mxCell id="mc4YOfM3O7CR0dzrdJk4-25" style="edgeStyle=orthogonalEdgeStyle;rounded=0;orthogonalLoop=1;jettySize=auto;html=1;entryX=0.5;entryY=0;entryDx=0;entryDy=0;" parent="1" source="mc4YOfM3O7CR0dzrdJk4-13" target="mc4YOfM3O7CR0dzrdJk4-24" edge="1">
          <mxGeometry relative="1" as="geometry" />
        </mxCell>
        <mxCell id="mc4YOfM3O7CR0dzrdJk4-13" value="" style="shape=trapezoid;perimeter=trapezoidPerimeter;whiteSpace=wrap;html=1;fixedSize=1;rotation=-180;fillColor=#dae8fc;strokeColor=#6c8ebf;" parent="1" vertex="1">
          <mxGeometry x="400" y="110" width="140" height="40" as="geometry" />
        </mxCell>
        <mxCell id="mc4YOfM3O7CR0dzrdJk4-17" style="edgeStyle=orthogonalEdgeStyle;rounded=0;orthogonalLoop=1;jettySize=auto;html=1;entryX=0.75;entryY=1;entryDx=0;entryDy=0;" parent="1" source="mc4YOfM3O7CR0dzrdJk4-16" target="mc4YOfM3O7CR0dzrdJk4-13" edge="1">
          <mxGeometry relative="1" as="geometry" />
        </mxCell>
        <mxCell id="mc4YOfM3O7CR0dzrdJk4-16" value="a mantissa" style="text;html=1;align=center;verticalAlign=middle;whiteSpace=wrap;rounded=0;" parent="1" vertex="1">
          <mxGeometry x="370" y="40" width="90" height="30" as="geometry" />
        </mxCell>
        <mxCell id="mc4YOfM3O7CR0dzrdJk4-19" style="edgeStyle=orthogonalEdgeStyle;rounded=0;orthogonalLoop=1;jettySize=auto;html=1;entryX=0.25;entryY=1;entryDx=0;entryDy=0;" parent="1" source="mc4YOfM3O7CR0dzrdJk4-18" target="mc4YOfM3O7CR0dzrdJk4-13" edge="1">
          <mxGeometry relative="1" as="geometry" />
        </mxCell>
        <mxCell id="mc4YOfM3O7CR0dzrdJk4-18" value="b mantissa" style="text;html=1;align=center;verticalAlign=middle;whiteSpace=wrap;rounded=0;" parent="1" vertex="1">
          <mxGeometry x="480" y="40" width="90" height="30" as="geometry" />
        </mxCell>
        <mxCell id="mc4YOfM3O7CR0dzrdJk4-20" value="1" style="text;html=1;align=center;verticalAlign=middle;whiteSpace=wrap;rounded=0;" parent="1" vertex="1">
          <mxGeometry x="220" y="256" width="20" height="26" as="geometry" />
        </mxCell>
        <mxCell id="mc4YOfM3O7CR0dzrdJk4-21" value="0" style="text;html=1;align=center;verticalAlign=middle;whiteSpace=wrap;rounded=0;" parent="1" vertex="1">
          <mxGeometry x="150" y="256" width="20" height="26" as="geometry" />
        </mxCell>
        <mxCell id="mc4YOfM3O7CR0dzrdJk4-22" value="1" style="text;html=1;align=center;verticalAlign=middle;whiteSpace=wrap;rounded=0;" parent="1" vertex="1">
          <mxGeometry x="425" y="110" width="20" height="26" as="geometry" />
        </mxCell>
        <mxCell id="mc4YOfM3O7CR0dzrdJk4-23" value="0" style="text;html=1;align=center;verticalAlign=middle;whiteSpace=wrap;rounded=0;" parent="1" vertex="1">
          <mxGeometry x="495" y="110" width="20" height="26" as="geometry" />
        </mxCell>
        <mxCell id="mc4YOfM3O7CR0dzrdJk4-31" style="edgeStyle=orthogonalEdgeStyle;rounded=0;orthogonalLoop=1;jettySize=auto;html=1;" parent="1" source="mc4YOfM3O7CR0dzrdJk4-24" target="mc4YOfM3O7CR0dzrdJk4-32" edge="1">
          <mxGeometry relative="1" as="geometry">
            <mxPoint x="470" y="310" as="targetPoint" />
          </mxGeometry>
        </mxCell>
        <mxCell id="mc4YOfM3O7CR0dzrdJk4-40" value="48 bits wide" style="edgeLabel;html=1;align=center;verticalAlign=middle;resizable=0;points=[];" parent="mc4YOfM3O7CR0dzrdJk4-31" vertex="1" connectable="0">
          <mxGeometry x="0.4494" relative="1" as="geometry">
            <mxPoint y="-9" as="offset" />
          </mxGeometry>
        </mxCell>
        <mxCell id="mc4YOfM3O7CR0dzrdJk4-24" value="concatenate" style="ellipse;whiteSpace=wrap;html=1;aspect=fixed;fillColor=#ffe6cc;strokeColor=#d79b00;" parent="1" vertex="1">
          <mxGeometry x="429.5" y="190" width="81" height="81" as="geometry" />
        </mxCell>
        <mxCell id="mc4YOfM3O7CR0dzrdJk4-28" style="edgeStyle=orthogonalEdgeStyle;rounded=0;orthogonalLoop=1;jettySize=auto;html=1;entryX=1;entryY=0.5;entryDx=0;entryDy=0;" parent="1" source="mc4YOfM3O7CR0dzrdJk4-26" target="mc4YOfM3O7CR0dzrdJk4-24" edge="1">
          <mxGeometry relative="1" as="geometry" />
        </mxCell>
        <mxCell id="mc4YOfM3O7CR0dzrdJk4-26" value="23&#39;b0" style="text;html=1;align=center;verticalAlign=middle;whiteSpace=wrap;rounded=0;" parent="1" vertex="1">
          <mxGeometry x="540" y="215.5" width="40" height="30" as="geometry" />
        </mxCell>
        <mxCell id="mc4YOfM3O7CR0dzrdJk4-30" style="edgeStyle=orthogonalEdgeStyle;rounded=0;orthogonalLoop=1;jettySize=auto;html=1;entryX=0;entryY=0.5;entryDx=0;entryDy=0;" parent="1" source="mc4YOfM3O7CR0dzrdJk4-29" target="mc4YOfM3O7CR0dzrdJk4-24" edge="1">
          <mxGeometry relative="1" as="geometry" />
        </mxCell>
        <mxCell id="mc4YOfM3O7CR0dzrdJk4-29" value="2&#39;b01" style="text;html=1;align=center;verticalAlign=middle;whiteSpace=wrap;rounded=0;" parent="1" vertex="1">
          <mxGeometry x="370" y="215.5" width="40" height="30" as="geometry" />
        </mxCell>
        <mxCell id="mc4YOfM3O7CR0dzrdJk4-36" style="edgeStyle=orthogonalEdgeStyle;rounded=0;orthogonalLoop=1;jettySize=auto;html=1;entryX=0.25;entryY=1;entryDx=0;entryDy=0;exitX=0.5;exitY=1;exitDx=0;exitDy=0;" parent="1" source="mc4YOfM3O7CR0dzrdJk4-32" target="mc4YOfM3O7CR0dzrdJk4-35" edge="1">
          <mxGeometry relative="1" as="geometry">
            <mxPoint x="535" y="380" as="sourcePoint" />
            <Array as="points">
              <mxPoint x="470" y="400" />
              <mxPoint x="535" y="400" />
            </Array>
          </mxGeometry>
        </mxCell>
        <mxCell id="mc4YOfM3O7CR0dzrdJk4-101" style="edgeStyle=orthogonalEdgeStyle;rounded=0;orthogonalLoop=1;jettySize=auto;html=1;entryX=0.5;entryY=0;entryDx=0;entryDy=0;" parent="1" source="mc4YOfM3O7CR0dzrdJk4-32" target="mc4YOfM3O7CR0dzrdJk4-42" edge="1">
          <mxGeometry relative="1" as="geometry" />
        </mxCell>
        <mxCell id="mc4YOfM3O7CR0dzrdJk4-32" value="&amp;gt;&amp;gt;&amp;nbsp;" style="ellipse;whiteSpace=wrap;html=1;aspect=fixed;fillColor=#d5e8d4;strokeColor=#82b366;" parent="1" vertex="1">
          <mxGeometry x="435" y="310" width="70" height="70" as="geometry" />
        </mxCell>
        <mxCell id="mc4YOfM3O7CR0dzrdJk4-46" style="edgeStyle=orthogonalEdgeStyle;rounded=0;orthogonalLoop=1;jettySize=auto;html=1;entryX=1;entryY=0;entryDx=0;entryDy=0;" parent="1" source="mc4YOfM3O7CR0dzrdJk4-35" target="mc4YOfM3O7CR0dzrdJk4-45" edge="1">
          <mxGeometry relative="1" as="geometry" />
        </mxCell>
        <mxCell id="mc4YOfM3O7CR0dzrdJk4-35" value="" style="shape=trapezoid;perimeter=trapezoidPerimeter;whiteSpace=wrap;html=1;fixedSize=1;rotation=-180;fillColor=#dae8fc;strokeColor=#6c8ebf;" parent="1" vertex="1">
          <mxGeometry x="430" y="500" width="140" height="40" as="geometry" />
        </mxCell>
        <mxCell id="mc4YOfM3O7CR0dzrdJk4-42" value="two&#39;s comlement" style="ellipse;whiteSpace=wrap;html=1;aspect=fixed;fillColor=#ffe6cc;strokeColor=#d79b00;" parent="1" vertex="1">
          <mxGeometry x="430" y="420" width="70" height="70" as="geometry" />
        </mxCell>
        <mxCell id="mc4YOfM3O7CR0dzrdJk4-43" value="" style="endArrow=none;html=1;rounded=0;entryX=0.75;entryY=1;entryDx=0;entryDy=0;exitX=0.5;exitY=1;exitDx=0;exitDy=0;" parent="1" source="mc4YOfM3O7CR0dzrdJk4-42" target="mc4YOfM3O7CR0dzrdJk4-35" edge="1">
          <mxGeometry width="50" height="50" relative="1" as="geometry">
            <mxPoint x="415" y="430" as="sourcePoint" />
            <mxPoint x="465" y="380" as="targetPoint" />
          </mxGeometry>
        </mxCell>
        <mxCell id="mc4YOfM3O7CR0dzrdJk4-59" style="edgeStyle=orthogonalEdgeStyle;rounded=0;orthogonalLoop=1;jettySize=auto;html=1;entryX=0.25;entryY=1;entryDx=0;entryDy=0;" parent="1" source="mc4YOfM3O7CR0dzrdJk4-45" target="mc4YOfM3O7CR0dzrdJk4-58" edge="1">
          <mxGeometry relative="1" as="geometry" />
        </mxCell>
        <mxCell id="mc4YOfM3O7CR0dzrdJk4-72" value="adder result" style="edgeLabel;html=1;align=center;verticalAlign=middle;resizable=0;points=[];" parent="mc4YOfM3O7CR0dzrdJk4-59" vertex="1" connectable="0">
          <mxGeometry x="-0.0606" y="-1" relative="1" as="geometry">
            <mxPoint as="offset" />
          </mxGeometry>
        </mxCell>
        <mxCell id="mc4YOfM3O7CR0dzrdJk4-61" style="edgeStyle=orthogonalEdgeStyle;rounded=0;orthogonalLoop=1;jettySize=auto;html=1;exitX=0;exitY=0.5;exitDx=0;exitDy=0;entryX=0.5;entryY=0;entryDx=0;entryDy=0;" parent="1" source="mc4YOfM3O7CR0dzrdJk4-45" target="mc4YOfM3O7CR0dzrdJk4-60" edge="1">
          <mxGeometry relative="1" as="geometry">
            <Array as="points">
              <mxPoint x="345" y="630" />
              <mxPoint x="345" y="610" />
              <mxPoint x="312" y="610" />
            </Array>
          </mxGeometry>
        </mxCell>
        <mxCell id="mc4YOfM3O7CR0dzrdJk4-45" value="+" style="ellipse;whiteSpace=wrap;html=1;aspect=fixed;fontSize=23;fillColor=#d5e8d4;strokeColor=#82b366;" parent="1" vertex="1">
          <mxGeometry x="350" y="590" width="80" height="80" as="geometry" />
        </mxCell>
        <mxCell id="mc4YOfM3O7CR0dzrdJk4-49" style="edgeStyle=orthogonalEdgeStyle;rounded=0;orthogonalLoop=1;jettySize=auto;html=1;entryX=0;entryY=0;entryDx=0;entryDy=0;" parent="1" source="mc4YOfM3O7CR0dzrdJk4-47" target="mc4YOfM3O7CR0dzrdJk4-45" edge="1">
          <mxGeometry relative="1" as="geometry">
            <Array as="points">
              <mxPoint x="290" y="560" />
              <mxPoint x="362" y="560" />
            </Array>
          </mxGeometry>
        </mxCell>
        <mxCell id="mc4YOfM3O7CR0dzrdJk4-53" value="" style="group;" parent="1" vertex="1" connectable="0">
          <mxGeometry x="205" y="480" width="170" height="70" as="geometry" />
        </mxCell>
        <mxCell id="mc4YOfM3O7CR0dzrdJk4-47" value="concatenate" style="ellipse;whiteSpace=wrap;html=1;aspect=fixed;fillColor=#ffe6cc;strokeColor=#d79b00;" parent="mc4YOfM3O7CR0dzrdJk4-53" vertex="1">
          <mxGeometry x="50" width="70" height="70" as="geometry" />
        </mxCell>
        <mxCell id="mc4YOfM3O7CR0dzrdJk4-50" style="edgeStyle=orthogonalEdgeStyle;rounded=0;orthogonalLoop=1;jettySize=auto;html=1;entryX=1;entryY=0.5;entryDx=0;entryDy=0;" parent="mc4YOfM3O7CR0dzrdJk4-53" source="mc4YOfM3O7CR0dzrdJk4-48" target="mc4YOfM3O7CR0dzrdJk4-47" edge="1">
          <mxGeometry relative="1" as="geometry" />
        </mxCell>
        <mxCell id="mc4YOfM3O7CR0dzrdJk4-48" value="7&#39;b0" style="text;html=1;align=center;verticalAlign=middle;whiteSpace=wrap;rounded=0;" parent="mc4YOfM3O7CR0dzrdJk4-53" vertex="1">
          <mxGeometry x="140" y="20" width="30" height="30" as="geometry" />
        </mxCell>
        <mxCell id="mc4YOfM3O7CR0dzrdJk4-52" style="edgeStyle=orthogonalEdgeStyle;rounded=0;orthogonalLoop=1;jettySize=auto;html=1;entryX=0;entryY=0.5;entryDx=0;entryDy=0;" parent="mc4YOfM3O7CR0dzrdJk4-53" source="mc4YOfM3O7CR0dzrdJk4-51" target="mc4YOfM3O7CR0dzrdJk4-47" edge="1">
          <mxGeometry relative="1" as="geometry" />
        </mxCell>
        <mxCell id="mc4YOfM3O7CR0dzrdJk4-51" value="2&#39;b01" style="text;html=1;align=center;verticalAlign=middle;whiteSpace=wrap;rounded=0;" parent="mc4YOfM3O7CR0dzrdJk4-53" vertex="1">
          <mxGeometry y="20" width="30" height="30" as="geometry" />
        </mxCell>
        <mxCell id="mc4YOfM3O7CR0dzrdJk4-55" style="edgeStyle=orthogonalEdgeStyle;rounded=0;orthogonalLoop=1;jettySize=auto;html=1;entryX=1;entryY=0.5;entryDx=0;entryDy=0;" parent="1" source="mc4YOfM3O7CR0dzrdJk4-54" target="mc4YOfM3O7CR0dzrdJk4-32" edge="1">
          <mxGeometry relative="1" as="geometry" />
        </mxCell>
        <mxCell id="mc4YOfM3O7CR0dzrdJk4-54" value="operation" style="text;html=1;align=center;verticalAlign=middle;whiteSpace=wrap;rounded=0;" parent="1" vertex="1">
          <mxGeometry x="540" y="330" width="60" height="30" as="geometry" />
        </mxCell>
        <mxCell id="mc4YOfM3O7CR0dzrdJk4-56" value="1" style="text;html=1;align=center;verticalAlign=middle;whiteSpace=wrap;rounded=0;" parent="1" vertex="1">
          <mxGeometry x="457.5" y="500" width="15" height="30" as="geometry" />
        </mxCell>
        <mxCell id="mc4YOfM3O7CR0dzrdJk4-57" value="0" style="text;html=1;align=center;verticalAlign=middle;whiteSpace=wrap;rounded=0;" parent="1" vertex="1">
          <mxGeometry x="527.5" y="500" width="15" height="30" as="geometry" />
        </mxCell>
        <mxCell id="mc4YOfM3O7CR0dzrdJk4-76" style="edgeStyle=orthogonalEdgeStyle;rounded=0;orthogonalLoop=1;jettySize=auto;html=1;entryX=0.5;entryY=0;entryDx=0;entryDy=0;exitX=0.5;exitY=0;exitDx=0;exitDy=0;" parent="1" source="mc4YOfM3O7CR0dzrdJk4-58" target="mc4YOfM3O7CR0dzrdJk4-74" edge="1">
          <mxGeometry relative="1" as="geometry">
            <mxPoint x="285" y="750" as="sourcePoint" />
            <mxPoint x="187" y="815" as="targetPoint" />
          </mxGeometry>
        </mxCell>
        <mxCell id="mc4YOfM3O7CR0dzrdJk4-81" style="edgeStyle=orthogonalEdgeStyle;rounded=0;orthogonalLoop=1;jettySize=auto;html=1;entryX=0.5;entryY=0;entryDx=0;entryDy=0;" parent="1" target="mc4YOfM3O7CR0dzrdJk4-79" edge="1">
          <mxGeometry relative="1" as="geometry">
            <mxPoint x="351.49524111675123" y="735" as="sourcePoint" />
            <mxPoint x="296" y="803" as="targetPoint" />
            <Array as="points">
              <mxPoint x="351" y="765" />
              <mxPoint x="296" y="765" />
            </Array>
          </mxGeometry>
        </mxCell>
        <mxCell id="mc4YOfM3O7CR0dzrdJk4-94" style="edgeStyle=orthogonalEdgeStyle;rounded=0;orthogonalLoop=1;jettySize=auto;html=1;entryX=0.5;entryY=0;entryDx=0;entryDy=0;" parent="1" source="mc4YOfM3O7CR0dzrdJk4-58" target="mc4YOfM3O7CR0dzrdJk4-85" edge="1">
          <mxGeometry relative="1" as="geometry" />
        </mxCell>
        <mxCell id="mc4YOfM3O7CR0dzrdJk4-95" style="edgeStyle=orthogonalEdgeStyle;rounded=0;orthogonalLoop=1;jettySize=auto;html=1;entryX=0.5;entryY=0;entryDx=0;entryDy=0;" parent="1" target="mc4YOfM3O7CR0dzrdJk4-86" edge="1">
          <mxGeometry relative="1" as="geometry">
            <mxPoint x="351.49425287356325" y="745" as="sourcePoint" />
            <mxPoint x="500.5" y="815" as="targetPoint" />
            <Array as="points">
              <mxPoint x="351" y="775" />
              <mxPoint x="501" y="775" />
            </Array>
          </mxGeometry>
        </mxCell>
        <mxCell id="mc4YOfM3O7CR0dzrdJk4-58" value="" style="shape=trapezoid;perimeter=trapezoidPerimeter;whiteSpace=wrap;html=1;fixedSize=1;rotation=-180;fillColor=#dae8fc;strokeColor=#6c8ebf;" parent="1" vertex="1">
          <mxGeometry x="273" y="710" width="157" height="30" as="geometry" />
        </mxCell>
        <mxCell id="mc4YOfM3O7CR0dzrdJk4-60" value="two&#39;s comlement" style="ellipse;whiteSpace=wrap;html=1;aspect=fixed;fillColor=#ffe6cc;strokeColor=#d79b00;" parent="1" vertex="1">
          <mxGeometry x="277" y="630" width="70" height="70" as="geometry" />
        </mxCell>
        <mxCell id="mc4YOfM3O7CR0dzrdJk4-63" value="" style="endArrow=none;html=1;rounded=0;exitX=0.75;exitY=1;exitDx=0;exitDy=0;entryX=0.5;entryY=1;entryDx=0;entryDy=0;" parent="1" source="mc4YOfM3O7CR0dzrdJk4-58" target="mc4YOfM3O7CR0dzrdJk4-60" edge="1">
          <mxGeometry width="50" height="50" relative="1" as="geometry">
            <mxPoint x="415" y="640" as="sourcePoint" />
            <mxPoint x="465" y="590" as="targetPoint" />
          </mxGeometry>
        </mxCell>
        <mxCell id="mc4YOfM3O7CR0dzrdJk4-64" value="0" style="text;html=1;align=center;verticalAlign=middle;whiteSpace=wrap;rounded=0;" parent="1" vertex="1">
          <mxGeometry x="382.5" y="710" width="15" height="30" as="geometry" />
        </mxCell>
        <mxCell id="mc4YOfM3O7CR0dzrdJk4-65" value="1" style="text;html=1;align=center;verticalAlign=middle;whiteSpace=wrap;rounded=0;" parent="1" vertex="1">
          <mxGeometry x="304.5" y="710" width="15" height="30" as="geometry" />
        </mxCell>
        <mxCell id="mc4YOfM3O7CR0dzrdJk4-67" style="edgeStyle=orthogonalEdgeStyle;rounded=0;orthogonalLoop=1;jettySize=auto;html=1;entryX=0;entryY=0.5;entryDx=0;entryDy=0;" parent="1" source="mc4YOfM3O7CR0dzrdJk4-66" target="mc4YOfM3O7CR0dzrdJk4-58" edge="1">
          <mxGeometry relative="1" as="geometry" />
        </mxCell>
        <mxCell id="mc4YOfM3O7CR0dzrdJk4-66" value="" style="shape=or;whiteSpace=wrap;html=1;rotation=-180;fillColor=#f8cecc;strokeColor=#b85450;" parent="1" vertex="1">
          <mxGeometry x="462.5" y="705" width="27.5" height="40" as="geometry" />
        </mxCell>
        <mxCell id="mc4YOfM3O7CR0dzrdJk4-68" value="operation" style="text;html=1;align=center;verticalAlign=middle;whiteSpace=wrap;rounded=0;" parent="1" vertex="1">
          <mxGeometry x="540" y="680" width="60" height="30" as="geometry" />
        </mxCell>
        <mxCell id="mc4YOfM3O7CR0dzrdJk4-69" style="edgeStyle=orthogonalEdgeStyle;rounded=0;orthogonalLoop=1;jettySize=auto;html=1;entryX=0;entryY=0.75;entryDx=0;entryDy=0;entryPerimeter=0;" parent="1" source="mc4YOfM3O7CR0dzrdJk4-68" target="mc4YOfM3O7CR0dzrdJk4-66" edge="1">
          <mxGeometry relative="1" as="geometry" />
        </mxCell>
        <mxCell id="mc4YOfM3O7CR0dzrdJk4-70" value="adder result MSB" style="text;html=1;align=center;verticalAlign=middle;whiteSpace=wrap;rounded=0;" parent="1" vertex="1">
          <mxGeometry x="540" y="720" width="72.5" height="30" as="geometry" />
        </mxCell>
        <mxCell id="mc4YOfM3O7CR0dzrdJk4-71" style="edgeStyle=orthogonalEdgeStyle;rounded=0;orthogonalLoop=1;jettySize=auto;html=1;entryX=0;entryY=0.25;entryDx=0;entryDy=0;entryPerimeter=0;" parent="1" source="mc4YOfM3O7CR0dzrdJk4-70" target="mc4YOfM3O7CR0dzrdJk4-66" edge="1">
          <mxGeometry relative="1" as="geometry" />
        </mxCell>
        <mxCell id="mc4YOfM3O7CR0dzrdJk4-78" style="edgeStyle=orthogonalEdgeStyle;rounded=0;orthogonalLoop=1;jettySize=auto;html=1;entryX=0.75;entryY=1;entryDx=0;entryDy=0;" parent="1" source="mc4YOfM3O7CR0dzrdJk4-74" target="mc4YOfM3O7CR0dzrdJk4-77" edge="1">
          <mxGeometry relative="1" as="geometry" />
        </mxCell>
        <mxCell id="mc4YOfM3O7CR0dzrdJk4-82" value="index" style="edgeLabel;html=1;align=center;verticalAlign=middle;resizable=0;points=[];" parent="mc4YOfM3O7CR0dzrdJk4-78" vertex="1" connectable="0">
          <mxGeometry x="-0.3239" y="2" relative="1" as="geometry">
            <mxPoint x="12" as="offset" />
          </mxGeometry>
        </mxCell>
        <mxCell id="mc4YOfM3O7CR0dzrdJk4-74" value="Priority Encoder" style="rounded=0;whiteSpace=wrap;html=1;fillColor=#ffe6cc;strokeColor=#d79b00;" parent="1" vertex="1">
          <mxGeometry x="170" y="790" width="100" height="60" as="geometry" />
        </mxCell>
        <mxCell id="mc4YOfM3O7CR0dzrdJk4-114" style="edgeStyle=orthogonalEdgeStyle;rounded=0;orthogonalLoop=1;jettySize=auto;html=1;entryX=1;entryY=0;entryDx=0;entryDy=0;" parent="1" source="mc4YOfM3O7CR0dzrdJk4-77" target="mc4YOfM3O7CR0dzrdJk4-97" edge="1">
          <mxGeometry relative="1" as="geometry" />
        </mxCell>
        <mxCell id="mc4YOfM3O7CR0dzrdJk4-77" value="" style="shape=trapezoid;perimeter=trapezoidPerimeter;whiteSpace=wrap;html=1;fixedSize=1;rotation=-180;fillColor=#dae8fc;strokeColor=#6c8ebf;" parent="1" vertex="1">
          <mxGeometry x="193.5" y="890" width="136.5" height="40" as="geometry" />
        </mxCell>
        <mxCell id="mc4YOfM3O7CR0dzrdJk4-80" style="edgeStyle=orthogonalEdgeStyle;rounded=0;orthogonalLoop=1;jettySize=auto;html=1;entryX=0.25;entryY=1;entryDx=0;entryDy=0;" parent="1" source="mc4YOfM3O7CR0dzrdJk4-79" target="mc4YOfM3O7CR0dzrdJk4-77" edge="1">
          <mxGeometry relative="1" as="geometry" />
        </mxCell>
        <mxCell id="mc4YOfM3O7CR0dzrdJk4-93" value="result MSB" style="edgeLabel;html=1;align=center;verticalAlign=middle;resizable=0;points=[];" parent="mc4YOfM3O7CR0dzrdJk4-80" vertex="1" connectable="0">
          <mxGeometry x="-0.158" relative="1" as="geometry">
            <mxPoint as="offset" />
          </mxGeometry>
        </mxCell>
        <mxCell id="mc4YOfM3O7CR0dzrdJk4-79" value="MSB" style="ellipse;whiteSpace=wrap;html=1;aspect=fixed;fillColor=#ffe6cc;strokeColor=#d79b00;" parent="1" vertex="1">
          <mxGeometry x="275" y="808" width="42" height="42" as="geometry" />
        </mxCell>
        <mxCell id="mc4YOfM3O7CR0dzrdJk4-125" style="edgeStyle=orthogonalEdgeStyle;rounded=0;orthogonalLoop=1;jettySize=auto;html=1;entryX=1;entryY=0;entryDx=0;entryDy=0;" parent="1" source="mc4YOfM3O7CR0dzrdJk4-83" target="mc4YOfM3O7CR0dzrdJk4-123" edge="1">
          <mxGeometry relative="1" as="geometry">
            <Array as="points">
              <mxPoint x="466" y="1090" />
              <mxPoint x="352" y="1090" />
            </Array>
          </mxGeometry>
        </mxCell>
        <mxCell id="mc4YOfM3O7CR0dzrdJk4-83" value="" style="shape=trapezoid;perimeter=trapezoidPerimeter;whiteSpace=wrap;html=1;fixedSize=1;rotation=-180;fillColor=#dae8fc;strokeColor=#6c8ebf;" parent="1" vertex="1">
          <mxGeometry x="397.5" y="890" width="136.5" height="40" as="geometry" />
        </mxCell>
        <mxCell id="mc4YOfM3O7CR0dzrdJk4-88" style="edgeStyle=orthogonalEdgeStyle;rounded=0;orthogonalLoop=1;jettySize=auto;html=1;entryX=0.75;entryY=1;entryDx=0;entryDy=0;" parent="1" source="mc4YOfM3O7CR0dzrdJk4-85" target="mc4YOfM3O7CR0dzrdJk4-83" edge="1">
          <mxGeometry relative="1" as="geometry" />
        </mxCell>
        <mxCell id="mc4YOfM3O7CR0dzrdJk4-85" value="&amp;lt;&amp;lt;" style="ellipse;whiteSpace=wrap;html=1;aspect=fixed;fillColor=#d5e8d4;strokeColor=#82b366;" parent="1" vertex="1">
          <mxGeometry x="406.5" y="810" width="50" height="50" as="geometry" />
        </mxCell>
        <mxCell id="mc4YOfM3O7CR0dzrdJk4-87" style="edgeStyle=orthogonalEdgeStyle;rounded=0;orthogonalLoop=1;jettySize=auto;html=1;entryX=0.25;entryY=1;entryDx=0;entryDy=0;" parent="1" source="mc4YOfM3O7CR0dzrdJk4-86" target="mc4YOfM3O7CR0dzrdJk4-83" edge="1">
          <mxGeometry relative="1" as="geometry" />
        </mxCell>
        <mxCell id="mc4YOfM3O7CR0dzrdJk4-86" value="&amp;gt;&amp;gt;" style="ellipse;whiteSpace=wrap;html=1;aspect=fixed;fillColor=#d5e8d4;strokeColor=#82b366;" parent="1" vertex="1">
          <mxGeometry x="475.5" y="810" width="50" height="50" as="geometry" />
        </mxCell>
        <mxCell id="mc4YOfM3O7CR0dzrdJk4-90" style="edgeStyle=orthogonalEdgeStyle;rounded=0;orthogonalLoop=1;jettySize=auto;html=1;entryX=0;entryY=0.5;entryDx=0;entryDy=0;" parent="1" source="mc4YOfM3O7CR0dzrdJk4-89" target="mc4YOfM3O7CR0dzrdJk4-85" edge="1">
          <mxGeometry relative="1" as="geometry" />
        </mxCell>
        <mxCell id="mc4YOfM3O7CR0dzrdJk4-89" value="index" style="text;html=1;align=center;verticalAlign=middle;whiteSpace=wrap;rounded=0;" parent="1" vertex="1">
          <mxGeometry x="344.5" y="820" width="38" height="30" as="geometry" />
        </mxCell>
        <mxCell id="mc4YOfM3O7CR0dzrdJk4-92" style="edgeStyle=orthogonalEdgeStyle;rounded=0;orthogonalLoop=1;jettySize=auto;html=1;entryX=1;entryY=0.5;entryDx=0;entryDy=0;" parent="1" source="mc4YOfM3O7CR0dzrdJk4-91" target="mc4YOfM3O7CR0dzrdJk4-86" edge="1">
          <mxGeometry relative="1" as="geometry" />
        </mxCell>
        <mxCell id="mc4YOfM3O7CR0dzrdJk4-91" value="&lt;span style=&quot;font-size: 11px; text-wrap: nowrap; background-color: rgb(255, 255, 255);&quot;&gt;result MSB&lt;/span&gt;" style="text;html=1;align=center;verticalAlign=middle;whiteSpace=wrap;rounded=0;" parent="1" vertex="1">
          <mxGeometry x="545" y="820" width="60" height="30" as="geometry" />
        </mxCell>
        <mxCell id="mc4YOfM3O7CR0dzrdJk4-126" style="edgeStyle=orthogonalEdgeStyle;rounded=0;orthogonalLoop=1;jettySize=auto;html=1;entryX=0.5;entryY=0;entryDx=0;entryDy=0;" parent="1" source="mc4YOfM3O7CR0dzrdJk4-97" target="mc4YOfM3O7CR0dzrdJk4-123" edge="1">
          <mxGeometry relative="1" as="geometry">
            <Array as="points">
              <mxPoint x="190" y="1090" />
              <mxPoint x="310" y="1090" />
            </Array>
          </mxGeometry>
        </mxCell>
        <mxCell id="mc4YOfM3O7CR0dzrdJk4-97" value="+" style="ellipse;whiteSpace=wrap;html=1;aspect=fixed;fontSize=23;fillColor=#d5e8d4;strokeColor=#82b366;" parent="1" vertex="1">
          <mxGeometry x="150" y="1000" width="80" height="80" as="geometry" />
        </mxCell>
        <mxCell id="mc4YOfM3O7CR0dzrdJk4-113" style="edgeStyle=orthogonalEdgeStyle;rounded=0;orthogonalLoop=1;jettySize=auto;html=1;entryX=0;entryY=0;entryDx=0;entryDy=0;" parent="1" source="mc4YOfM3O7CR0dzrdJk4-98" target="mc4YOfM3O7CR0dzrdJk4-97" edge="1">
          <mxGeometry relative="1" as="geometry" />
        </mxCell>
        <mxCell id="mc4YOfM3O7CR0dzrdJk4-98" value="" style="shape=trapezoid;perimeter=trapezoidPerimeter;whiteSpace=wrap;html=1;fixedSize=1;rotation=-180;fillColor=#dae8fc;strokeColor=#6c8ebf;" parent="1" vertex="1">
          <mxGeometry x="16.5" y="890" width="140" height="40" as="geometry" />
        </mxCell>
        <mxCell id="mc4YOfM3O7CR0dzrdJk4-104" style="edgeStyle=orthogonalEdgeStyle;rounded=0;orthogonalLoop=1;jettySize=auto;html=1;entryX=0;entryY=0.5;entryDx=0;entryDy=0;" parent="1" source="mc4YOfM3O7CR0dzrdJk4-103" target="mc4YOfM3O7CR0dzrdJk4-35" edge="1">
          <mxGeometry relative="1" as="geometry" />
        </mxCell>
        <mxCell id="mc4YOfM3O7CR0dzrdJk4-103" value="&lt;span style=&quot;color: rgb(0, 0, 0); font-family: Helvetica; font-size: 11px; font-style: normal; font-variant-ligatures: normal; font-variant-caps: normal; font-weight: 400; letter-spacing: normal; orphans: 2; text-align: center; text-indent: 0px; text-transform: none; widows: 2; word-spacing: 0px; -webkit-text-stroke-width: 0px; white-space: nowrap; background-color: rgb(255, 255, 255); text-decoration-thickness: initial; text-decoration-style: initial; text-decoration-color: initial; display: inline !important; float: none;&quot;&gt;MSB 32 bits&amp;nbsp;&lt;/span&gt;" style="text;html=1;align=center;verticalAlign=middle;whiteSpace=wrap;rounded=0;" parent="1" vertex="1">
          <mxGeometry x="590" y="505" width="60" height="30" as="geometry" />
        </mxCell>
        <mxCell id="mc4YOfM3O7CR0dzrdJk4-109" style="edgeStyle=orthogonalEdgeStyle;rounded=0;orthogonalLoop=1;jettySize=auto;html=1;entryX=0.75;entryY=1;entryDx=0;entryDy=0;" parent="1" source="mc4YOfM3O7CR0dzrdJk4-106" target="mc4YOfM3O7CR0dzrdJk4-98" edge="1">
          <mxGeometry relative="1" as="geometry" />
        </mxCell>
        <mxCell id="mc4YOfM3O7CR0dzrdJk4-106" value="a exponent" style="text;html=1;align=center;verticalAlign=middle;whiteSpace=wrap;rounded=0;" parent="1" vertex="1">
          <mxGeometry x="16.5" y="840" width="70" height="30" as="geometry" />
        </mxCell>
        <mxCell id="mc4YOfM3O7CR0dzrdJk4-108" style="edgeStyle=orthogonalEdgeStyle;rounded=0;orthogonalLoop=1;jettySize=auto;html=1;entryX=0.25;entryY=1;entryDx=0;entryDy=0;" parent="1" source="mc4YOfM3O7CR0dzrdJk4-107" target="mc4YOfM3O7CR0dzrdJk4-98" edge="1">
          <mxGeometry relative="1" as="geometry" />
        </mxCell>
        <mxCell id="mc4YOfM3O7CR0dzrdJk4-107" value="b exponent" style="text;html=1;align=center;verticalAlign=middle;whiteSpace=wrap;rounded=0;" parent="1" vertex="1">
          <mxGeometry x="86.5" y="840" width="70" height="30" as="geometry" />
        </mxCell>
        <mxCell id="mc4YOfM3O7CR0dzrdJk4-112" style="edgeStyle=orthogonalEdgeStyle;rounded=0;orthogonalLoop=1;jettySize=auto;html=1;entryX=0;entryY=0.5;entryDx=0;entryDy=0;" parent="1" source="mc4YOfM3O7CR0dzrdJk4-111" target="mc4YOfM3O7CR0dzrdJk4-98" edge="1">
          <mxGeometry relative="1" as="geometry">
            <Array as="points">
              <mxPoint x="160" y="910" />
            </Array>
          </mxGeometry>
        </mxCell>
        <mxCell id="mc4YOfM3O7CR0dzrdJk4-111" value="lower" style="text;html=1;align=center;verticalAlign=middle;whiteSpace=wrap;rounded=0;" parent="1" vertex="1">
          <mxGeometry x="140" y="940" width="40" height="20" as="geometry" />
        </mxCell>
        <mxCell id="mc4YOfM3O7CR0dzrdJk4-115" value="1" style="text;html=1;align=center;verticalAlign=middle;whiteSpace=wrap;rounded=0;" parent="1" vertex="1">
          <mxGeometry x="111.5" y="895" width="20" height="30" as="geometry" />
        </mxCell>
        <mxCell id="mc4YOfM3O7CR0dzrdJk4-116" value="0" style="text;html=1;align=center;verticalAlign=middle;whiteSpace=wrap;rounded=0;" parent="1" vertex="1">
          <mxGeometry x="41.5" y="895" width="20" height="30" as="geometry" />
        </mxCell>
        <mxCell id="mc4YOfM3O7CR0dzrdJk4-118" style="edgeStyle=orthogonalEdgeStyle;rounded=0;orthogonalLoop=1;jettySize=auto;html=1;entryX=0;entryY=0.5;entryDx=0;entryDy=0;" parent="1" source="mc4YOfM3O7CR0dzrdJk4-117" target="mc4YOfM3O7CR0dzrdJk4-83" edge="1">
          <mxGeometry relative="1" as="geometry" />
        </mxCell>
        <mxCell id="mc4YOfM3O7CR0dzrdJk4-117" value="operation" style="text;html=1;align=center;verticalAlign=middle;whiteSpace=wrap;rounded=0;" parent="1" vertex="1">
          <mxGeometry x="560" y="895" width="60" height="30" as="geometry" />
        </mxCell>
        <mxCell id="mc4YOfM3O7CR0dzrdJk4-119" value="1" style="text;html=1;align=center;verticalAlign=middle;whiteSpace=wrap;rounded=0;" parent="1" vertex="1">
          <mxGeometry x="421.5" y="890" width="20" height="30" as="geometry" />
        </mxCell>
        <mxCell id="mc4YOfM3O7CR0dzrdJk4-120" value="0" style="text;html=1;align=center;verticalAlign=middle;whiteSpace=wrap;rounded=0;" parent="1" vertex="1">
          <mxGeometry x="490.5" y="890" width="20" height="30" as="geometry" />
        </mxCell>
        <mxCell id="mc4YOfM3O7CR0dzrdJk4-121" value="1" style="text;html=1;align=center;verticalAlign=middle;whiteSpace=wrap;rounded=0;" parent="1" vertex="1">
          <mxGeometry x="220" y="890" width="20" height="30" as="geometry" />
        </mxCell>
        <mxCell id="mc4YOfM3O7CR0dzrdJk4-122" value="0" style="text;html=1;align=center;verticalAlign=middle;whiteSpace=wrap;rounded=0;" parent="1" vertex="1">
          <mxGeometry x="284.5" y="890" width="20" height="30" as="geometry" />
        </mxCell>
        <mxCell id="mc4YOfM3O7CR0dzrdJk4-131" style="edgeStyle=orthogonalEdgeStyle;rounded=0;orthogonalLoop=1;jettySize=auto;html=1;entryX=0.5;entryY=0;entryDx=0;entryDy=0;" parent="1" source="mc4YOfM3O7CR0dzrdJk4-123" target="mc4YOfM3O7CR0dzrdJk4-129" edge="1">
          <mxGeometry relative="1" as="geometry" />
        </mxCell>
        <mxCell id="mc4YOfM3O7CR0dzrdJk4-123" value="concatenate" style="ellipse;whiteSpace=wrap;html=1;fillColor=#ffe6cc;strokeColor=#d79b00;" parent="1" vertex="1">
          <mxGeometry x="250" y="1110" width="120" height="80" as="geometry" />
        </mxCell>
        <mxCell id="mc4YOfM3O7CR0dzrdJk4-128" style="edgeStyle=orthogonalEdgeStyle;rounded=0;orthogonalLoop=1;jettySize=auto;html=1;entryX=0;entryY=0;entryDx=0;entryDy=0;" parent="1" source="mc4YOfM3O7CR0dzrdJk4-127" target="mc4YOfM3O7CR0dzrdJk4-123" edge="1">
          <mxGeometry relative="1" as="geometry" />
        </mxCell>
        <mxCell id="mc4YOfM3O7CR0dzrdJk4-127" value="sign logic" style="rounded=0;whiteSpace=wrap;html=1;fillColor=#e1d5e7;strokeColor=#9673a6;" parent="1" vertex="1">
          <mxGeometry x="38.5" y="1091" width="120" height="60" as="geometry" />
        </mxCell>
        <mxCell id="mc4YOfM3O7CR0dzrdJk4-129" value="&lt;font style=&quot;font-size: 18px;&quot;&gt;result&lt;/font&gt;" style="text;html=1;align=center;verticalAlign=middle;whiteSpace=wrap;rounded=0;" parent="1" vertex="1">
          <mxGeometry x="280" y="1213" width="60" height="30" as="geometry" />
        </mxCell>
      </root>
    </mxGraphModel>
  </diagram>
</mxfile>
